<svg width="24" height="24" viewBox="0 0 24 24" fill="none" xmlns="http://www.w3.org/2000/svg">
<g id="Huge-icon/notes and task/outline/notes 01">
<path id="Vector" d="M16.3636 13H10.6364M16.3636 9H10.6364M16.3636 17H10.6364M15.4091 2V5M7.77273 2V5M6.81818 22H16.3636C18.4724 22 20.1818 20.2091 20.1818 18V7.5C20.1818 5.29086 18.4724 3.5 16.3636 3.5H6.81818C4.70946 3.5 3 5.29086 3 7.5V18C3 20.2091 4.70946 22 6.81818 22Z" stroke="#16151C" stroke-width="1.5" stroke-linecap="round"/>
<path id="Ellipse 1096" d="M8.24991 9C8.24991 9.55228 7.82255 10 7.29537 10C6.76818 10 6.34082 9.55228 6.34082 9C6.34082 8.44772 6.76818 8 7.29537 8C7.82255 8 8.24991 8.44772 8.24991 9Z" fill="#16151C"/>
<path id="Ellipse 1097" d="M8.24991 13C8.24991 13.5523 7.82255 14 7.29537 14C6.76818 14 6.34082 13.5523 6.34082 13C6.34082 12.4477 6.76818 12 7.29537 12C7.82255 12 8.24991 12.4477 8.24991 13Z" fill="#16151C"/>
<path id="Ellipse 1098" d="M8.24991 17C8.24991 17.5523 7.82255 18 7.29537 18C6.76818 18 6.34082 17.5523 6.34082 17C6.34082 16.4477 6.76818 16 7.29537 16C7.82255 16 8.24991 16.4477 8.24991 17Z" fill="#16151C"/>
</g>
</svg>
