<svg width="24" height="24" viewBox="0 0 24 24" fill="none" xmlns="http://www.w3.org/2000/svg">
<path fill-rule="evenodd" clip-rule="evenodd" d="M21.1368 12C21.1368 17.5228 16.8632 22 11.5914 22C6.31954 22 2.0459 17.5228 2.0459 12C2.0459 6.47715 6.31954 2 11.5914 2C16.8632 2 21.1368 6.47715 21.1368 12ZM11.5914 11.25C10.9837 11.25 10.4323 10.7236 10.4323 10C10.4323 9.27638 10.9837 8.75 11.5914 8.75C12.199 8.75 12.7504 9.27638 12.7504 10C12.7504 10.4142 13.0862 10.75 13.5004 10.75C13.9147 10.75 14.2504 10.4142 14.2504 10C14.2504 8.77365 13.4612 7.69794 12.3414 7.35992V6.5C12.3414 6.08579 12.0056 5.75 11.5914 5.75C11.1771 5.75 10.8414 6.08579 10.8414 6.5V7.35992C9.72146 7.69794 8.93226 8.77365 8.93226 10C8.93226 11.4855 10.0903 12.75 11.5914 12.75C12.199 12.75 12.7504 13.2764 12.7504 14C12.7504 14.7236 12.199 15.25 11.5914 15.25C10.9837 15.25 10.4323 14.7236 10.4323 14C10.4323 13.5858 10.0965 13.25 9.68226 13.25C9.26805 13.25 8.93226 13.5858 8.93226 14C8.93226 15.2263 9.72146 16.3021 10.8414 16.6401V17.5C10.8414 17.9142 11.1771 18.25 11.5914 18.25C12.0056 18.25 12.3414 17.9142 12.3414 17.5V16.6401C13.4612 16.3021 14.2504 15.2263 14.2504 14C14.2504 12.5145 13.0924 11.25 11.5914 11.25Z" fill="black"/>
</svg>
